<svg width="20" height="20" viewBox="0 0 20 20" fill="none" xmlns="http://www.w3.org/2000/svg">
<g clip-path="url(#clip0_3128_714)">
<path d="M9.88785 6.74711C9.88785 8.48166 8.48169 9.88782 6.74715 9.88782C5.0126 9.88782 3.60645 8.48166 3.60645 6.74711C3.60645 5.01257 5.01252 3.60641 6.74715 3.60641C8.48177 3.60641 9.88785 5.01249 9.88785 6.74711Z" fill="#F09102"/>
<path fill-rule="evenodd" clip-rule="evenodd" d="M6.29841 0.690002C6.67009 0.690002 6.97148 0.991311 6.97148 1.363V1.81171C6.97148 2.1834 6.67009 2.48471 6.29841 2.48471C5.92672 2.48471 5.62541 2.1834 5.62541 1.81171V1.363C5.62541 0.991311 5.92672 0.690002 6.29841 0.690002ZM2.33295 2.33271C2.59578 2.06988 3.02186 2.06988 3.28469 2.33271L3.47857 2.52659C3.7414 2.78942 3.7414 3.2155 3.47857 3.47833C3.21574 3.74116 2.78966 3.74116 2.52683 3.47833L2.33295 3.28445C2.07011 3.02162 2.07011 2.59554 2.33295 2.33271ZM10.2639 2.33279C10.5267 2.59562 10.5267 3.02178 10.2639 3.28461L10.0699 3.47849C9.80707 3.74132 9.381 3.74132 9.11817 3.47849C8.85533 3.21566 8.85533 2.7895 9.11817 2.52667L9.31204 2.33279C9.57488 2.06996 10.001 2.06996 10.2639 2.33279ZM0.690002 6.29841C0.690002 5.92672 0.991311 5.62541 1.363 5.62541H1.81171C2.1834 5.62541 2.48471 5.92672 2.48471 6.29841C2.48471 6.67009 2.1834 6.97148 1.81171 6.97148H1.363C0.991311 6.97148 0.690002 6.67009 0.690002 6.29841ZM3.47857 9.11856C3.7414 9.38139 3.7414 9.80755 3.47857 10.0704L3.28469 10.2642C3.02186 10.527 2.59578 10.527 2.33295 10.2642C2.07011 10.0013 2.07011 9.57519 2.33295 9.31244L2.52683 9.11856C2.78966 8.85573 3.21574 8.85573 3.47857 9.11856Z" fill="#F09102"/>
<path d="M14.1823 19.31C17.0142 19.31 19.31 17.0413 19.31 14.2426C19.31 12.0245 17.868 10.1393 15.8597 9.45265C15.5744 6.92098 13.4018 4.95242 10.7638 4.95242C7.93183 4.95242 5.63608 7.22118 5.63608 10.0198C5.63608 10.6388 5.74841 11.2319 5.95401 11.7802C5.71287 11.7334 5.46373 11.7089 5.20881 11.7089C3.08477 11.7089 1.36298 13.4105 1.36298 15.5095C1.36298 17.6085 3.08477 19.31 5.20873 19.31H14.1823Z" fill="#75501B"/>
</g>
<defs>
<clipPath id="clip0_3128_714">
<rect width="20" height="20" fill="white"/>
</clipPath>
</defs>
</svg>
