<svg width="19" height="19" viewBox="0 0 19 19" fill="none" xmlns="http://www.w3.org/2000/svg">
<path d="M9.30992 18.6198C14.4516 18.6198 18.6198 14.4516 18.6198 9.30992C18.6198 8.87918 17.9742 8.80793 17.7514 9.1766C16.6917 10.9304 14.767 12.1029 12.5684 12.1029C9.22624 12.1029 6.51692 9.3936 6.51692 6.05142C6.51692 3.85288 7.68946 1.9281 9.44324 0.868379C9.81192 0.645604 9.74067 0 9.30992 0C4.1682 0 0 4.1682 0 9.30992C0 14.4516 4.1682 18.6198 9.30992 18.6198Z" fill="#F0DC02"/>
<path d="M16.6648 0.286009C16.5151 -0.0953365 15.9774 -0.0953365 15.8275 0.286009L15.4268 1.30568C15.3812 1.42213 15.2893 1.51428 15.1733 1.5602L14.1573 1.96236C13.7774 2.1127 13.7774 2.65238 14.1573 2.8028L15.1733 3.20496C15.2893 3.25088 15.3812 3.34303 15.4268 3.45941L15.8275 4.47915C15.9774 4.86042 16.5151 4.86042 16.6648 4.47915L17.0656 3.45941C17.1113 3.34303 17.2031 3.25088 17.3191 3.20496L18.3351 2.8028C18.715 2.65238 18.715 2.1127 18.3351 1.96236L17.3191 1.5602C17.2031 1.51428 17.1113 1.42213 17.0656 1.30568L16.6648 0.286009Z" fill="#756E1B"/>
<path d="M13.0644 5.70648C12.9145 5.32513 12.3769 5.32513 12.227 5.70648L12.0809 6.07825C12.0352 6.1947 11.9434 6.28685 11.8274 6.33277L11.457 6.47939C11.0771 6.6298 11.0771 7.1694 11.457 7.31982L11.8274 7.46643C11.9434 7.51235 12.0352 7.6045 12.0809 7.72096L12.227 8.09272C12.3769 8.47407 12.9145 8.47407 13.0644 8.09272L13.2105 7.72096C13.2562 7.6045 13.348 7.51235 13.464 7.46643L13.8345 7.31982C14.2144 7.1694 14.2144 6.6298 13.8345 6.47939L13.464 6.33277C13.348 6.28685 13.2562 6.1947 13.2105 6.07825L13.0644 5.70648Z" fill="#756E1B"/>
</svg>
